<svg width="800" height="200" viewBox="0 0 800 200" fill="none" xmlns="http://www.w3.org/2000/svg">
<rect width="800" height="200" fill="#D3D9C6"/>
<path d="M378.156 177.4L381.288 167.968C381.528 167.272 381.936 166.924 382.512 166.924C383.064 166.924 383.46 167.284 383.7 168.004L386.796 177.4L389.748 167.968C389.964 167.272 390.36 166.924 390.936 166.924C391.224 166.924 391.476 167.032 391.692 167.248C391.932 167.464 392.052 167.704 392.052 167.968C392.052 168.064 392.04 168.184 392.016 168.328C391.992 168.448 391.956 168.568 391.908 168.688L388.092 180.172C387.852 180.94 387.42 181.324 386.796 181.324C386.172 181.324 385.74 180.928 385.5 180.136L382.404 170.848L379.308 180.136C379.068 180.928 378.636 181.324 378.012 181.324C377.364 181.324 376.92 180.928 376.68 180.136L372.972 168.76C372.924 168.64 372.888 168.52 372.864 168.4C372.84 168.256 372.828 168.136 372.828 168.04C372.828 167.728 372.948 167.464 373.188 167.248C373.428 167.032 373.704 166.924 374.016 166.924C374.616 166.924 375.024 167.296 375.24 168.04L378.156 177.4ZM396.734 160.804C397.19 160.804 397.538 160.96 397.778 161.272C398.042 161.56 398.174 161.98 398.174 162.532C398.174 163.06 398.042 163.48 397.778 163.792C397.538 164.104 397.19 164.26 396.734 164.26C396.302 164.26 395.954 164.104 395.69 163.792C395.45 163.48 395.33 163.06 395.33 162.532C395.33 161.98 395.45 161.56 395.69 161.272C395.954 160.96 396.302 160.804 396.734 160.804ZM395.546 179.848V168.364C395.546 167.908 395.642 167.56 395.834 167.32C396.05 167.056 396.35 166.924 396.734 166.924C397.118 166.924 397.406 167.056 397.598 167.32C397.814 167.56 397.922 167.908 397.922 168.364V179.848C397.922 180.304 397.814 180.664 397.598 180.928C397.406 181.192 397.118 181.324 396.734 181.324C396.35 181.324 396.05 181.192 395.834 180.928C395.642 180.664 395.546 180.304 395.546 179.848ZM406.882 181.324C405.634 181.324 404.698 180.856 404.074 179.92C403.738 179.392 403.498 178.708 403.354 177.868C403.21 177.004 403.138 175.816 403.138 174.304V159.796C403.138 159.316 403.234 158.956 403.426 158.716C403.642 158.452 403.942 158.32 404.326 158.32C404.71 158.32 404.998 158.452 405.19 158.716C405.406 158.956 405.514 159.316 405.514 159.796V174.52C405.514 175.672 405.562 176.572 405.658 177.22C405.754 177.844 405.922 178.312 406.162 178.624C406.426 178.912 406.774 179.116 407.206 179.236C407.47 179.308 407.662 179.44 407.782 179.632C407.926 179.8 407.986 180.04 407.962 180.352C407.962 180.64 407.854 180.868 407.638 181.036C407.446 181.228 407.194 181.324 406.882 181.324ZM419.295 168.58V159.796C419.295 159.316 419.391 158.956 419.583 158.716C419.799 158.452 420.099 158.32 420.483 158.32C420.867 158.32 421.155 158.452 421.347 158.716C421.563 158.956 421.671 159.316 421.671 159.796V180.244C421.671 180.628 421.563 180.904 421.347 181.072C421.131 181.24 420.855 181.324 420.519 181.324C420.231 181.324 420.015 181.216 419.871 181C419.727 180.784 419.619 180.292 419.547 179.524C418.971 180.172 418.347 180.64 417.675 180.928C417.027 181.216 416.211 181.36 415.227 181.36C413.451 181.36 412.131 180.82 411.267 179.74C410.403 178.636 409.971 176.956 409.971 174.7V173.476C409.971 171.292 410.427 169.648 411.339 168.544C412.275 167.416 413.643 166.852 415.443 166.852C417.219 166.852 418.503 167.428 419.295 168.58ZM419.259 173.476C419.235 172.612 419.175 171.952 419.079 171.496C418.983 171.016 418.815 170.596 418.575 170.236C418.023 169.372 417.099 168.94 415.803 168.94C414.627 168.94 413.763 169.324 413.211 170.092C412.659 170.86 412.383 172.06 412.383 173.692V174.808C412.383 176.368 412.647 177.508 413.175 178.228C413.727 178.924 414.591 179.272 415.767 179.272C416.967 179.272 417.855 178.912 418.431 178.192C419.007 177.448 419.295 176.308 419.295 174.772L419.259 173.476Z" fill="#3B5A41"/>
<g clip-path="url(#clip0_390_39)">
<path d="M477.201 79.8287L466.281 101.529L449.301 135.249C444.221 145.369 432.401 149.769 422.161 145.729C421.481 145.489 420.821 145.169 420.181 144.849C418.861 144.169 417.661 143.389 416.521 142.489C415.421 141.609 414.421 140.629 413.521 139.549C413.281 139.269 413.041 138.989 412.821 138.669C412.121 137.769 411.521 136.809 410.981 135.809C410.801 135.489 410.641 135.149 410.481 134.809C409.881 133.549 409.401 132.209 409.041 130.849C407.741 125.869 408.181 120.369 410.681 115.409L438.581 59.9687C444.001 49.2087 457.041 44.9087 467.721 50.3687C468.401 50.7287 469.041 51.0887 469.641 51.5087C472.281 53.1887 474.421 55.3887 476.041 57.9087C480.121 64.2487 480.841 72.5487 477.221 79.7887L477.201 79.8287Z" fill="#94A996"/>
<path d="M365.821 97.9687L379.541 77.3887L383.401 72.1287C388.161 65.6087 395.801 62.4287 403.321 63.0687C406.981 63.3687 410.581 64.5687 413.821 66.7687C414.081 66.9287 414.321 67.0887 414.561 67.2687C419.601 70.9687 422.661 76.3887 423.481 82.1287C423.741 83.9687 423.781 85.8487 423.581 87.6887C423.181 91.4287 421.801 95.1487 419.401 98.4287L390.301 139.749" fill="#627A65"/>
<path d="M361.061 62.5887L372.601 84.5487L390.541 118.689C395.941 128.929 392.561 141.449 383.101 147.649C382.481 148.069 381.841 148.449 381.201 148.789C379.861 149.489 378.481 150.049 377.061 150.469C375.681 150.869 374.281 151.129 372.841 151.269C372.461 151.309 372.081 151.329 371.701 151.349C370.541 151.389 369.381 151.349 368.221 151.209C367.841 151.169 367.481 151.109 367.081 151.049C365.681 150.809 364.281 150.429 362.941 149.929C358.021 148.089 353.721 144.469 351.081 139.449L321.561 83.3287C315.841 72.4287 320.021 58.9487 330.921 53.2087C331.621 52.8487 332.321 52.5287 333.021 52.2687C335.981 51.0487 339.101 50.5487 342.161 50.6687C349.861 50.9887 357.181 55.2687 361.041 62.5887H361.061Z" fill="#3B5A41"/>
<path d="M419.101 68.6887L430.261 87.8487L447.621 117.649C452.841 126.589 450.321 138.509 442.101 145.209C441.561 145.669 441.001 146.089 440.441 146.469C439.261 147.249 438.061 147.909 436.821 148.449C435.601 148.949 434.361 149.349 433.081 149.609C432.741 149.689 432.421 149.749 432.061 149.789C431.021 149.949 429.981 150.029 428.941 150.009C428.601 150.009 428.261 150.009 427.921 149.969C426.661 149.889 425.401 149.669 424.181 149.349C419.701 148.129 415.741 145.229 413.181 140.849L384.641 91.8687C379.101 82.3687 382.321 69.4487 391.821 63.0487C392.421 62.6487 393.041 62.2687 393.661 61.9687C396.261 60.5487 399.021 59.7687 401.761 59.5687C408.661 59.0887 415.361 62.3287 419.101 68.7087V68.6887Z" fill="#79937D"/>
</g>
<defs>
<clipPath id="clip0_390_39">
<rect width="161" height="104" fill="white" transform="translate(319 48)"/>
</clipPath>
</defs>
</svg>
