<svg width="250" height="250" viewBox="0 0 250 250" fill="none" xmlns="http://www.w3.org/2000/svg">
<rect width="250" height="250" rx="125" fill="#D3D9C6"/>
<path d="M197.794 106.735L187.592 127.007L171.729 158.509C166.984 167.963 155.941 172.074 146.375 168.3C145.74 168.076 145.123 167.777 144.525 167.478C143.292 166.842 142.171 166.114 141.106 165.273C140.078 164.451 139.144 163.535 138.303 162.526C138.079 162.265 137.855 162.003 137.649 161.704C136.995 160.863 136.435 159.967 135.93 159.032C135.762 158.733 135.613 158.416 135.463 158.098C134.903 156.921 134.454 155.669 134.118 154.399C132.903 149.746 133.315 144.608 135.65 139.974L161.715 88.1814C166.778 78.1292 178.96 74.1121 188.938 79.2129C189.573 79.5492 190.171 79.8855 190.731 80.2779C193.198 81.8474 195.197 83.9027 196.71 86.2569C200.522 92.1798 201.195 99.9338 197.813 106.698L197.794 106.735Z" fill="#94A996"/>
<path d="M93.7411 123.681L106.559 104.455L110.165 99.5413C114.612 93.4503 121.749 90.4794 128.774 91.0773C132.193 91.3576 135.557 92.4787 138.584 94.5339C138.826 94.6834 139.051 94.8329 139.275 95.0011C143.983 98.4577 146.842 103.521 147.608 108.884C147.851 110.602 147.888 112.359 147.701 114.078C147.328 117.572 146.039 121.047 143.796 124.111L116.611 162.713" fill="#627A65"/>
<path d="M89.2943 90.6291L100.075 111.144L116.835 143.039C121.88 152.605 118.722 164.301 109.884 170.094C109.305 170.486 108.707 170.841 108.109 171.159C106.858 171.812 105.568 172.336 104.242 172.728C102.953 173.102 101.645 173.345 100.299 173.475C99.9443 173.513 99.5893 173.531 99.2343 173.55C98.1506 173.587 97.0669 173.55 95.9833 173.419C95.6283 173.382 95.2919 173.326 94.9182 173.27C93.6103 173.046 92.3024 172.691 91.0506 172.224C86.4542 170.505 82.4371 167.123 79.9708 162.433L52.3927 110.005C47.049 99.8218 50.954 87.2285 61.137 81.8661C61.791 81.5298 62.4449 81.2309 63.0989 80.988C65.8641 79.8482 68.7789 79.3811 71.6376 79.4932C78.831 79.7922 85.6695 83.7906 89.2756 90.6291H89.2943Z" fill="#3B5A41"/>
<path d="M143.516 96.3278L153.942 114.227L170.16 142.067C175.037 150.419 172.682 161.555 165.003 167.814C164.499 168.244 163.975 168.636 163.452 168.991C162.35 169.72 161.229 170.336 160.07 170.841C158.931 171.308 157.772 171.682 156.576 171.925C156.259 171.999 155.96 172.055 155.624 172.093C154.652 172.242 153.68 172.317 152.709 172.298C152.391 172.298 152.074 172.298 151.756 172.261C150.579 172.186 149.402 171.981 148.262 171.682C144.077 170.542 140.377 167.833 137.986 163.741L111.323 117.983C106.148 109.108 109.156 97.0378 118.031 91.0588C118.591 90.6851 119.17 90.3301 119.75 90.0498C122.179 88.7232 124.757 87.9945 127.317 87.8077C133.763 87.3593 140.022 90.3861 143.516 96.3464V96.3278Z" fill="#79937D"/>
</svg>
