<svg width="100" height="65" viewBox="0 0 100 65" fill="none" xmlns="http://www.w3.org/2000/svg">
<path d="M98.5295 19.8233L91.7284 33.3383L81.1531 54.3395C77.9892 60.6423 70.6276 63.3829 64.25 60.8666C63.8265 60.7171 63.4154 60.5178 63.0168 60.3185C62.1948 59.895 61.4474 59.4092 60.7374 58.8486C60.0523 58.3006 59.4295 57.6902 58.869 57.0176C58.7195 56.8432 58.5701 56.6688 58.433 56.4695C57.9971 55.909 57.6234 55.3111 57.2871 54.6883C57.175 54.489 57.0753 54.2772 56.9757 54.0655C56.602 53.2807 56.303 52.4461 56.0788 51.5991C55.2692 48.4975 55.5432 45.0721 57.1002 41.9829L74.4765 7.45424C77.8522 0.752816 85.9736 -1.92527 92.6253 1.47528C93.0488 1.69949 93.4474 1.9237 93.8211 2.18528C95.4653 3.23161 96.7981 4.60179 97.8071 6.17128C100.348 10.1199 100.797 15.2892 98.542 19.7984L98.5295 19.8233Z" fill="#94A996"/>
<path d="M29.1606 31.1211L37.7056 18.3036L40.1097 15.0277C43.0743 10.9669 47.8325 8.98638 52.5161 9.38498C54.7956 9.57182 57.0377 10.3192 59.0556 11.6894C59.2175 11.789 59.367 11.8887 59.5165 12.0008C62.6553 14.3052 64.5611 17.6808 65.0718 21.2558C65.2338 22.4017 65.2587 23.5726 65.1341 24.7186C64.885 27.0479 64.0255 29.3648 62.5308 31.4076L44.4071 57.1422" fill="#627A65"/>
<path d="M26.1962 9.08593L33.3835 22.7629L44.5567 44.0257C47.9199 50.4033 45.8148 58.2009 39.923 62.0623C39.5368 62.3241 39.1382 62.5607 38.7396 62.7725C37.9051 63.2084 37.0456 63.5572 36.1612 63.8188C35.3017 64.0679 34.4298 64.2299 33.5329 64.317C33.2963 64.342 33.0596 64.3544 32.8229 64.3669C32.1005 64.3918 31.378 64.3669 30.6555 64.2797C30.4189 64.2548 30.1947 64.2174 29.9455 64.18C29.0736 64.0306 28.2017 63.7939 27.3671 63.4825C24.3029 62.3365 21.6248 60.0817 19.9805 56.9552L1.59516 22.003C-1.96732 15.2144 0.636033 6.8189 7.42466 3.24398C7.86063 3.01977 8.2966 2.82047 8.73257 2.65854C10.5761 1.89871 12.5193 1.5873 14.4251 1.66204C19.2207 1.86134 23.7797 4.52697 26.1837 9.08593H26.1962Z" fill="#3B5A41"/>
<path d="M62.3441 12.8852L69.2947 24.8183L80.1067 43.3781C83.3577 48.946 81.7883 56.3699 76.6687 60.5428C76.3324 60.8292 75.9837 61.0908 75.6349 61.3275C74.9 61.8133 74.1526 62.2243 73.3803 62.5608C72.6205 62.8723 71.8482 63.1214 71.051 63.2833C70.8392 63.3331 70.6399 63.3705 70.4157 63.3954C69.768 63.4951 69.1203 63.5449 68.4726 63.5324C68.2608 63.5324 68.049 63.5324 67.8373 63.5075C67.0525 63.4577 66.2678 63.3207 65.508 63.1214C62.7178 62.3615 60.2516 60.5552 58.6572 57.8273L40.8821 27.322C37.4317 21.4053 39.4372 13.3586 45.3539 9.37256C45.7276 9.12344 46.1137 8.88677 46.4999 8.69992C48.1192 7.81553 49.8382 7.32974 51.5447 7.20518C55.8421 6.90623 60.0149 8.92414 62.3441 12.8977V12.8852Z" fill="#79937D"/>
</svg>
