<svg width="16" height="11" viewBox="0 0 16 11" fill="none" xmlns="http://www.w3.org/2000/svg">
<path d="M15.7647 3.17172L14.6766 5.33413L12.9845 8.69432C12.4783 9.70278 11.3004 10.1413 10.28 9.73865C10.2122 9.71473 10.1465 9.68285 10.0827 9.65096C9.95118 9.5832 9.8316 9.50547 9.718 9.41578C9.60839 9.32809 9.50874 9.23044 9.41905 9.12281C9.39513 9.09491 9.37122 9.06701 9.3493 9.03512C9.27954 8.94544 9.21975 8.84977 9.16594 8.75012C9.148 8.71824 9.13206 8.68435 9.11612 8.65047C9.05633 8.52491 9.00849 8.39138 8.97262 8.25586C8.84307 7.7596 8.88692 7.21153 9.13604 6.71727L11.9163 1.19268C12.4564 0.120451 13.7558 -0.308044 14.8201 0.236044C14.8878 0.271918 14.9516 0.307792 15.0114 0.349645C15.2745 0.517057 15.4877 0.736287 15.6491 0.987404C16.0557 1.61918 16.1275 2.44627 15.7667 3.16774L15.7647 3.17172Z" fill="#94A996"/>
<path d="M4.66577 4.97935L6.03297 2.92856L6.41762 2.4044C6.89195 1.75468 7.65327 1.4378 8.40264 1.50157C8.76736 1.53147 9.1261 1.65105 9.44896 1.87028C9.47487 1.88622 9.49879 1.90216 9.52271 1.9201C10.0249 2.28881 10.3298 2.82891 10.4116 3.4009C10.4375 3.58425 10.4415 3.7716 10.4215 3.95495C10.3817 4.32764 10.2441 4.69834 10.005 5.02519L7.1052 9.14272" fill="#627A65"/>
<path d="M4.19139 1.45371L5.34135 3.64202L7.12907 7.04407C7.66718 8.06448 7.33036 9.3121 6.38767 9.92993C6.32589 9.97181 6.26212 10.0097 6.19834 10.0436C6.06481 10.1133 5.92729 10.1691 5.78579 10.211C5.64827 10.2508 5.50876 10.2767 5.36527 10.2907C5.3274 10.2947 5.28953 10.2967 5.25167 10.2987C5.13607 10.3026 5.02048 10.2987 4.90488 10.2847C4.86702 10.2807 4.83114 10.2747 4.79128 10.2688C4.65177 10.2449 4.51226 10.207 4.37873 10.1572C3.88846 9.9738 3.45996 9.61304 3.19689 9.1128L0.255226 3.52045C-0.314771 2.43426 0.101765 1.09098 1.18795 0.518998C1.2577 0.483124 1.32746 0.451236 1.39721 0.425327C1.69217 0.303754 2.00308 0.253929 2.30801 0.265887C3.07531 0.297775 3.80475 0.724276 4.1894 1.45371H4.19139Z" fill="#3B5A41"/>
<path d="M9.97515 2.06164L11.0872 3.97094L12.8172 6.9405C13.3373 7.83137 13.0862 9.0192 12.2671 9.68685C12.2133 9.73269 12.1575 9.77454 12.1017 9.81241C11.9841 9.89014 11.8645 9.9559 11.7409 10.0097C11.6194 10.0596 11.4958 10.0994 11.3683 10.1253C11.3344 10.1333 11.3025 10.1393 11.2666 10.1433C11.163 10.1592 11.0593 10.1672 10.9557 10.1652C10.9218 10.1652 10.8879 10.1652 10.8541 10.1612C10.7285 10.1532 10.6029 10.1313 10.4814 10.0994C10.0349 9.97786 9.64035 9.68884 9.38524 9.25238L6.54124 4.37153C5.98918 3.42485 6.31005 2.13738 7.25672 1.49962C7.31651 1.45976 7.3783 1.42189 7.44008 1.392C7.69917 1.25049 7.9742 1.17277 8.24724 1.15284C8.93483 1.10501 9.60248 1.42787 9.97515 2.06364V2.06164Z" fill="#79937D"/>
</svg>
